<svg width="30" height="30" viewBox="0 0 27 17" fill="none" xmlns="http://www.w3.org/2000/svg">
<path d="M23.2922 8.90062L15.3477 2.33812C15.2432 2.25208 15.1222 2.20833 15 2.20833C14.9028 2.20833 14.8057 2.23604 14.7164 2.29146C14.5148 2.4176 14.3889 2.66625 14.3889 2.9375L14.3889 16.0625C14.3889 16.3337 14.5148 16.5824 14.7164 16.7085C14.9175 16.8354 15.1607 16.8165 15.3477 16.6626L23.2922 10.1001C23.4572 9.96302 23.5555 9.73916 23.5555 9.5C23.5555 9.26083 23.4572 9.03698 23.2922 8.90062Z" fill="#646464"/>
<path d="M15.9588 9.19171L8.01434 2.62921C7.90984 2.54317 7.78884 2.49942 7.66661 2.49942C7.56945 2.49942 7.47228 2.52712 7.38306 2.58254C7.18139 2.70869 7.0555 2.95733 7.0555 3.22858L7.0555 16.3536C7.0555 16.6248 7.18139 16.8735 7.38306 16.9996C7.58411 17.1265 7.82734 17.1075 8.01434 16.9537L15.9588 10.3912C16.1238 10.2541 16.2222 10.0302 16.2222 9.79108C16.2222 9.55192 16.1238 9.32806 15.9588 9.19171Z" fill="#646464"/>
</svg>
