<svg width="30" height="30" viewBox="0 0 27 17" fill="none" xmlns="http://www.w3.org/2000/svg">
<path d="M2.95396 9.048L11.6206 15.048C11.7346 15.1267 11.8666 15.1667 12 15.1667C12.106 15.1667 12.212 15.1413 12.3093 15.0907C12.5293 14.9753 12.6666 14.748 12.6666 14.5V2.5C12.6666 2.252 12.5293 2.02467 12.3093 1.90934C12.09 1.79334 11.8246 1.81067 11.6206 1.95134L2.95396 7.95134C2.77396 8.07667 2.66663 8.28134 2.66663 8.5C2.66663 8.71867 2.77396 8.92334 2.95396 9.048Z" fill="#646464"/>
<path d="M10.954 8.78187L19.6206 14.7819C19.7346 14.8605 19.8666 14.9005 20 14.9005C20.106 14.9005 20.212 14.8752 20.3093 14.8245C20.5293 14.7092 20.6666 14.4819 20.6666 14.2339V2.23387C20.6666 1.98587 20.5293 1.75853 20.3093 1.6432C20.09 1.5272 19.8246 1.54453 19.6206 1.6852L10.954 7.6852C10.774 7.81053 10.6666 8.0152 10.6666 8.23387C10.6666 8.45253 10.774 8.6572 10.954 8.78187Z" fill="#646464"/>
</svg>
